# xmcd CD database file
#
# Track frame offsets:
#	150
#	60540
#	117765
#	201607
#	263860
#
# Disc length: 4193 seconds
#
# Revision: 0
# Processed by: cddbd v1.5.1PL0 Copyright (c) Steve Scherf et al.
# Submitted via: CDex 1.51
#
DISCID=47105f05
DTITLE=Conte Candoli, Carl Fontana - THE COMPLETE PHOENIX RECORDINGS  1 OF 6
DYEAR=2002
DGENRE=Jazz
TTITLE0=walkin
TTITLE1=Broadway
TTITLE2=Poinciana
TTITLE3=America the beautiful
TTITLE4=Lester Leaps in
EXTD=YEAR: 2002
EXTT0=
EXTT1=
EXTT2=
EXTT3=
EXTT4=
PLAYORDER=
